<svg width="79" height="79" viewBox="0 0 79 79" fill="none" xmlns="http://www.w3.org/2000/svg">
<path fill-rule="evenodd" clip-rule="evenodd" d="M25 25.5C25 30.1877 21.1877 34 16.5 34C11.8123 34 8 30.1877 8 25.5C8 20.8123 11.8123 17 16.5 17C21.1877 17 25 20.8123 25 25.5ZM22.1667 25.5C22.1667 22.3748 19.6252 19.8333 16.5 19.8333C13.3748 19.8333 10.8333 22.3748 10.8333 25.5C10.8333 28.6252 13.3748 31.1667 16.5 31.1667C19.6252 31.1667 22.1667 28.6252 22.1667 25.5Z" fill="#A5A5A5"/>
<path fill-rule="evenodd" clip-rule="evenodd" d="M71 25.5C71 30.1877 67.1877 34 62.5 34C57.8123 34 54 30.1877 54 25.5C54 20.8123 57.8123 17 62.5 17C67.1877 17 71 20.8123 71 25.5ZM68.1667 25.5C68.1667 22.3748 65.6252 19.8333 62.5 19.8333C59.3748 19.8333 56.8333 22.3748 56.8333 25.5C56.8333 28.6252 59.3748 31.1667 62.5 31.1667C65.6252 31.1667 68.1667 28.6252 68.1667 25.5Z" fill="#A5A5A5"/>
<path fill-rule="evenodd" clip-rule="evenodd" d="M76.1786 37V55.2C76.1786 57.5156 74.2797 59.4 71.9464 59.4V44C71.9464 40.1402 68.7822 37 64.8929 37H57.8393C57.0606 37 56.4286 37.6272 56.4286 38.4V44V45.4V46.8H45.1429C44.3641 46.8 43.7321 47.4272 43.7321 48.2V52.4H35.2679V48.2C35.2679 47.4272 34.6359 46.8 33.8571 46.8H22.5714V45.4V44V38.4C22.5714 37.6272 21.9394 37 21.1607 37H14.1071C10.2178 37 7.05357 40.1402 7.05357 44V59.4C4.72025 59.4 2.82143 57.5156 2.82143 55.2V37H0V55.2C0 58.063 1.74505 60.5228 4.23214 61.6064V79H7.05357V62.2H8.46429H9.875H21.1607V77.6C21.1607 78.3728 21.7927 79 22.5714 79H26.8036H28.2143H29.625V77.6V56.6V55.2H33.8571H45.1429H49.375V56.6V77.6V79H50.7857H52.1964H56.4286C57.2073 79 57.8393 78.3728 57.8393 77.6V62.2H69.125H70.5357H71.9464V79H74.7679V61.6064C77.255 60.5228 79 58.063 79 55.2V37H76.1786ZM28.2143 52.4H25.3929H16.9286V44H14.1071V53.8C14.1071 54.5728 14.7391 55.2 15.5179 55.2H25.3929C26.1702 55.2 26.8036 55.8286 26.8036 56.6V76.2H23.9821V60.8C23.9821 60.0272 23.3501 59.4 22.5714 59.4H9.875V44C9.875 41.6844 11.7738 39.8 14.1071 39.8H19.75V44V45.4V48.2C19.75 48.9728 20.382 49.6 21.1607 49.6H32.4464V52.4H28.2143ZM55.0179 60.8C55.0179 60.0272 55.6499 59.4 56.4286 59.4H69.125V44C69.125 41.6844 67.2262 39.8 64.8929 39.8H59.25V44V45.4V48.2C59.25 48.9728 58.618 49.6 57.8393 49.6H46.5536V52.4H50.7857H53.6071H62.0714V44H64.8929V53.8C64.8929 54.5728 64.2609 55.2 63.4821 55.2H53.6071C52.8298 55.2 52.1964 55.8286 52.1964 56.6V76.2H55.0179V60.8Z" fill="#A5A5A5"/>
<path fill-rule="evenodd" clip-rule="evenodd" d="M27.1667 18.5714V14.2857C24.8694 14.2857 23 12.3629 23 10V4.28571C23 1.92286 24.8694 0 27.1667 0H43.8333C46.1306 0 48 1.92286 48 4.28571V10C48 12.3629 46.1306 14.2857 43.8333 14.2857H33.4167L29.6667 19.4286C29.3986 19.7943 28.9847 20 28.5556 20C28.4097 20 28.2611 19.9757 28.1167 19.9271C27.5486 19.7314 27.1667 19.1871 27.1667 18.5714ZM27.1667 2.85714C26.4014 2.85714 25.7778 3.49857 25.7778 4.28571V10C25.7778 10.7871 26.4014 11.4286 27.1667 11.4286H28.5556C29.3222 11.4286 29.9444 12.0686 29.9444 12.8571V14.2857L31.6111 12C31.8736 11.64 32.2847 11.4286 32.7222 11.4286H43.8333C44.5986 11.4286 45.2222 10.7871 45.2222 10V4.28571C45.2222 3.49857 44.5986 2.85714 43.8333 2.85714H27.1667Z" fill="#A5A5A5"/>
<rect x="28" y="6" width="14" height="3" fill="#A5A5A5"/>
<path d="M38 35H46V38H38V35Z" fill="#A5A5A5"/>
<path fill-rule="evenodd" clip-rule="evenodd" d="M32 34.2C32 31.8844 33.9348 30 36.3124 30H47.8122C49.6867 30 51.2851 31.1704 51.8788 32.8H53.5621C54.0925 32.8 54.5798 33.0842 54.8299 33.5406C55.0801 33.9956 55.0528 34.5472 54.7581 34.977L52.1246 38.8242V39.8C52.1246 42.1156 50.1898 44 47.8122 44H36.3124C33.9348 44 32 42.1156 32 39.8V34.2ZM50.6871 35.6C49.8937 35.6 49.2497 34.9728 49.2497 34.2C49.2497 33.4286 48.6042 32.8 47.8122 32.8H36.3124C35.5204 32.8 34.8749 33.4286 34.8749 34.2V39.8C34.8749 40.5714 35.5204 41.2 36.3124 41.2H47.8122C48.6042 41.2 49.2497 40.5714 49.2497 39.8V38.4C49.2497 38.1242 49.3345 37.8526 49.4912 37.623L50.8755 35.6H50.6871Z" fill="#A5A5A5"/>
<path d="M32 23H35V26H32V23Z" fill="#A5A5A5"/>
<path d="M38 23H41V26H38V23Z" fill="#A5A5A5"/>
<path d="M44 23H47V26H44V23Z" fill="#A5A5A5"/>
</svg>
