<svg width="82" height="82" viewBox="0 0 82 82" fill="none" xmlns="http://www.w3.org/2000/svg">
<path fill-rule="evenodd" clip-rule="evenodd" d="M51 13C51 9.13407 54.1341 6 58 6C61.8659 6 65 9.13407 65 13C65 16.8659 61.8659 20 58 20C54.136 19.9955 51.0046 16.864 51 13ZM53.8 13C53.8 15.3196 55.6804 17.2 58 17.2C60.3196 17.2 62.2 15.3196 62.2 13C62.2 10.6804 60.3196 8.8 58 8.8C55.6804 8.8 53.8 10.6804 53.8 13Z" fill="#A4A4A4"/>
<path fill-rule="evenodd" clip-rule="evenodd" d="M66.5116 9.45H68.65C69.3955 9.45 70 10.0545 70 10.8V16.2C70 16.9455 69.3955 17.55 68.65 17.55H66.5116L66.4441 17.716L67.9561 19.2267C68.4831 19.7539 68.4831 20.6084 67.9561 21.1356L64.1369 24.9548C63.6098 25.4818 62.7552 25.4818 62.2281 24.9548L60.716 23.4428L60.55 23.5116V25.65C60.55 26.3955 59.9455 27 59.2 27H53.8C53.0545 27 52.45 26.3955 52.45 25.65V23.5116L52.2839 23.4428L50.7719 24.9548C50.2363 25.4612 49.3987 25.4612 48.863 24.9548L45.0439 21.1356C44.5169 20.6084 44.5169 19.7539 45.0439 19.2267L46.5559 17.716L46.4884 17.55H44.35C43.6045 17.55 43 16.9455 43 16.2V10.8C43 10.0545 43.6045 9.45 44.35 9.45H46.4884L46.5573 9.28395L45.0452 7.77195C44.5182 7.24477 44.5182 6.39022 45.0452 5.86305L48.863 2.04525C49.3902 1.51824 50.2448 1.51824 50.7719 2.04525L52.2839 3.55725L52.45 3.4884V1.35C52.45 0.604463 53.0545 0 53.8 0H59.2C59.9455 0 60.55 0.604463 60.55 1.35V3.4884L60.716 3.55725L62.2281 2.04525C62.7637 1.53883 63.6013 1.53883 64.1369 2.04525L67.9561 5.86305C68.4831 6.39022 68.4831 7.24477 67.9561 7.77195L66.4441 9.28395L66.5116 9.45ZM65.5531 14.8513H67.3V12.1514H65.5531C64.9559 12.151 64.4299 11.7585 64.2598 11.1861C64.1029 10.6529 63.8907 10.1375 63.6266 9.64845C63.3416 9.12296 63.4361 8.47277 63.8589 8.05005L65.0914 6.8175L63.1825 4.9086L61.95 6.14115C61.5274 6.56387 60.877 6.65837 60.3516 6.37335C59.862 6.11027 59.3468 5.89798 58.8139 5.7402C58.242 5.56959 57.8502 5.0436 57.85 4.4469V2.7H55.15V4.4469C55.1498 5.0436 54.758 5.56959 54.1861 5.7402C53.6532 5.89798 53.138 6.11027 52.6484 6.37335C52.123 6.65837 51.4728 6.56387 51.05 6.14115L49.8175 4.9086L47.9086 6.81615L49.1411 8.0487C49.5639 8.47142 49.6584 9.12161 49.3734 9.6471C49.1094 10.1361 48.8971 10.6515 48.7402 11.1847C48.5701 11.7571 48.0441 12.1497 47.4469 12.15H45.7V14.85H47.4469C48.0436 14.8502 48.5696 15.242 48.7402 15.8139C48.8971 16.3472 49.1093 16.8625 49.3734 17.3516C49.6584 17.877 49.5639 18.5272 49.1411 18.95L47.9086 20.1812L49.8175 22.0914L51.05 20.8589C51.4726 20.4361 52.123 20.3416 52.6484 20.6266C53.138 20.8897 53.6532 21.1018 54.1861 21.2598C54.758 21.4304 55.1498 21.9564 55.15 22.5531V24.3H57.85V22.5531C57.8502 21.9564 58.242 21.4304 58.8139 21.2598C59.3468 21.1018 59.862 20.8897 60.3516 20.6266C60.877 20.3416 61.5274 20.4361 61.95 20.8589L63.1825 22.0914L65.0914 20.1839L63.8589 18.9527C63.4361 18.5301 63.3416 17.8797 63.6266 17.3542C63.8906 16.8652 64.1029 16.3498 64.2598 15.8166C64.4299 15.2442 64.9559 14.8517 65.5531 14.8513Z" fill="#A4A4A4"/>
<path fill-rule="evenodd" clip-rule="evenodd" d="M81.9932 80.4976L79.2709 54.5463C79.2151 54.0138 78.8543 53.5631 78.3481 53.3936L67.0276 49.602V44.536C67.0768 44.4974 67.1267 44.4604 67.1767 44.4235C67.2469 44.3715 67.3172 44.3195 67.3856 44.2628C72.3314 40.0517 75.1862 33.8747 75.1944 27.3659C75.1944 26.6116 74.5849 26 73.8332 26H69.7498V28.7317H72.4231C72.0561 33.9419 69.612 38.7839 65.6433 42.1635C60.9267 46.1091 54.074 46.1091 49.3574 42.1635C45.4452 38.7417 43.0188 33.9221 42.5953 28.7317H45.2495V26H41.1661C40.8015 26.0009 40.4522 26.1484 40.197 26.4098C39.9414 26.6696 39.8004 27.0213 39.805 27.3863C39.8633 33.8788 42.7093 40.0306 47.6138 44.2656C47.6823 44.323 47.7536 44.3756 47.825 44.4282C47.8742 44.4645 47.9234 44.5008 47.9718 44.5387V49.602L36.6526 53.3881C36.1464 53.5576 35.7856 54.0084 35.7298 54.5409L33.0075 80.4921C32.9292 81.2423 33.472 81.9141 34.2198 81.9927C34.2665 81.9976 34.3135 82 34.3605 82H80.6389C81.3906 82 82 81.3884 82 80.6341C82 80.5886 81.9978 80.543 81.9932 80.4976ZM47.9718 79.2683H35.8727L38.3445 55.7005L47.9718 52.4812V79.2683ZM53.9512 57.166L50.694 55.527V58.2505L53.9512 57.166ZM50.694 79.2683V61.1311L55.5179 59.518L52.1028 72.0839C52.0147 72.408 52.0485 72.7532 52.1981 73.0537L55.2974 79.2683H50.694ZM57.4997 62.6049L54.8659 72.2956L57.4997 77.5801L60.1321 72.3024L57.4997 62.6049ZM64.3053 79.2683H59.702L62.7999 73.0496C62.9495 72.7491 62.9833 72.4039 62.8952 72.0798L59.4801 59.514L64.3053 61.1311V79.2683ZM61.0481 57.1579L64.3053 58.2505V55.527L61.0481 57.1579ZM64.3053 52.473L57.4997 55.8876L50.694 52.473V46.2556C54.9826 48.3865 60.0167 48.3865 64.3053 46.2556V52.473ZM67.0276 52.4812V79.2683H79.1267L76.6548 55.7005L67.0276 52.4812Z" fill="#A4A4A4"/>
<path fill-rule="evenodd" clip-rule="evenodd" d="M6 36C6 32.1341 9.13407 29 13 29C16.8659 29 20 32.1341 20 36C20 39.8659 16.8659 43 13 43C9.136 42.9955 6.00455 39.864 6 36ZM8.8 36C8.8 38.3196 10.6804 40.2 13 40.2C15.3196 40.2 17.2 38.3196 17.2 36C17.2 33.6804 15.3196 31.8 13 31.8C10.6804 31.8 8.8 33.6804 8.8 36Z" fill="#A4A4A4"/>
<path fill-rule="evenodd" clip-rule="evenodd" d="M23.5116 31.45H25.65C26.3955 31.45 27 32.0545 27 32.8V38.2C27 38.9455 26.3955 39.55 25.65 39.55H23.5116L23.4441 39.716L24.9561 41.2267C25.4831 41.7539 25.4831 42.6084 24.9561 43.1356L21.1369 46.9548C20.6098 47.4818 19.7552 47.4818 19.2281 46.9548L17.716 45.4428L17.55 45.5116V47.65C17.55 48.3955 16.9455 49 16.2 49H10.8C10.0545 49 9.45 48.3955 9.45 47.65V45.5116L9.28395 45.4428L7.77195 46.9548C7.23634 47.4612 6.39866 47.4612 5.86305 46.9548L2.0439 43.1356C1.51689 42.6084 1.51689 41.7539 2.0439 41.2267L3.5559 39.716L3.4884 39.55H1.35C0.604463 39.55 0 38.9455 0 38.2V32.8C0 32.0545 0.604463 31.45 1.35 31.45H3.4884L3.55725 31.2839L2.04525 29.7719C1.51824 29.2448 1.51824 28.3902 2.04525 27.863L5.86305 24.0452C6.39022 23.5182 7.24477 23.5182 7.77195 24.0452L9.28395 25.5573L9.45 25.4884V23.35C9.45 22.6045 10.0545 22 10.8 22H16.2C16.9455 22 17.55 22.6045 17.55 23.35V25.4884L17.716 25.5573L19.2281 24.0452C19.7637 23.5388 20.6013 23.5388 21.1369 24.0452L24.9561 27.863C25.4831 28.3902 25.4831 29.2448 24.9561 29.7719L23.4441 31.2839L23.5116 31.45ZM22.5531 36.8513H24.3V34.1514H22.5545C21.9572 34.151 21.4312 33.7585 21.2612 33.1861C21.1042 32.6529 20.8919 32.1375 20.628 31.6484C20.343 31.123 20.4375 30.4726 20.8602 30.05L22.0928 28.8175L20.1825 26.9086L18.95 28.1411C18.5274 28.5639 17.877 28.6584 17.3516 28.3734C16.862 28.1103 16.3468 27.898 15.8139 27.7402C15.242 27.5696 14.8502 27.0436 14.85 26.4469V24.7H12.15V26.4469C12.1498 27.0436 11.758 27.5696 11.1861 27.7402C10.6532 27.898 10.138 28.1103 9.64845 28.3734C9.12296 28.6584 8.47277 28.5639 8.05005 28.1411L6.8175 26.9086L4.9086 28.8161L6.14115 30.0487C6.56387 30.4714 6.65837 31.1216 6.37335 31.6471C6.10943 32.1361 5.89714 32.6515 5.7402 33.1847C5.5701 33.7571 5.04411 34.1497 4.4469 34.15H2.7V36.85H4.4469C5.0436 36.8502 5.56959 37.242 5.7402 37.8139C5.89714 38.3472 6.10926 38.8625 6.37335 39.3516C6.65837 39.877 6.56387 40.5272 6.14115 40.95L4.9086 42.1812L6.8175 44.0914L8.05005 42.8589C8.4726 42.4361 9.12296 42.3416 9.64845 42.6266C10.138 42.8897 10.6532 43.1018 11.1861 43.2598C11.758 43.4304 12.1498 43.9564 12.15 44.5531V46.3H14.85V44.5531C14.8502 43.9564 15.242 43.4304 15.8139 43.2598C16.3468 43.1018 16.862 42.8897 17.3516 42.6266C17.877 42.3416 18.5272 42.4361 18.95 42.8589L20.1825 44.0914L22.0914 42.1839L20.8589 40.9527C20.4361 40.5301 20.3416 39.8797 20.6266 39.3542C20.8906 38.8652 21.1029 38.3498 21.2598 37.8166C21.4299 37.2442 21.9559 36.8517 22.5531 36.8513Z" fill="#A4A4A4"/>
<path d="M43.5333 43C40.2958 45.2151 36.4647 46.3973 32.5437 46.3913C30.8935 46.3918 29.2497 46.1841 27.6513 45.773L27 48.3008C28.8114 48.7657 30.6739 49.0006 32.5437 49C36.9875 49.0083 41.3297 47.67 45 45.1613L43.5333 43Z" fill="#A4A4A4"/>
<path d="M10.5219 16.7076C10.3325 17.1784 10.1584 17.6552 10 18.1374L12.6148 19C16.1892 8.13027 27.8732 2.22452 38.7119 5.80923C39.1349 5.94914 39.5533 6.10268 39.9665 6.26968L41 3.71092C29.005 -1.14058 15.3596 4.67822 10.5219 16.7076Z" fill="#A4A4A4"/>
<path d="M15.3089 51L14 53.4761C14.5929 54.0102 15.2157 54.5291 15.8488 55L17 52.3945C16.4244 51.9568 15.8488 51.4919 15.3089 51Z" fill="#A4A4A4"/>
<path d="M30.2476 56L30 58.8703C30.9947 58.9568 32.0053 59 33 59V56.1182C32.0859 56.1182 31.1603 56.0793 30.2476 56Z" fill="#A4A4A4"/>
<path d="M24.6496 55L24 57.4343C24.841 57.6598 25.7046 57.8501 26.5669 58L27 55.5166C26.2107 55.3793 25.4201 55.2054 24.6496 55Z" fill="#A4A4A4"/>
<path d="M19.9705 53L19 55.0805C19.7178 55.4161 20.4632 55.7241 21.2155 56L22 53.8379C21.3109 53.5885 20.6286 53.3057 19.9705 53Z" fill="#A4A4A4"/>
<path d="M22.1042 14C21.343 14.6866 20.6391 15.4346 20 16.2361L22.2205 18C22.7605 17.3219 23.3557 16.6896 24 16.1099L22.1042 14Z" fill="#A4A4A4"/>
<path d="M35.281 10L35 12.6173C35.7749 12.6906 36.543 12.8185 37.2974 13L38 10.4524C37.107 10.2385 36.1981 10.0873 35.281 10Z" fill="#A4A4A4"/>
<path d="M32.832 10C31.878 10.0605 30.9307 10.2005 30 10.4189L30.6045 13C31.3917 12.8151 32.1931 12.6963 33 12.6447L32.832 10Z" fill="#A4A4A4"/>
<path d="M27.8499 11C26.86 11.4166 25.9066 11.9155 25 12.4913L26.5914 15C27.3577 14.5134 28.1634 14.0915 29 13.739L27.8499 11Z" fill="#A4A4A4"/>
<path d="M19.011 18C18.6125 18.7186 18.2744 19.4689 18 20.2432L20.1448 21C20.3767 20.3452 20.6628 19.7108 21 19.1034L19.011 18Z" fill="#A4A4A4"/>
</svg>
